<svg class="icon" viewBox="0 0 1024 1024" xmlns="http://www.w3.org/2000/svg" width="22" height="22"><path d="M843.294 871.906c0-49.694 40.659-90.353 90.353-90.353S1024 822.212 1024 871.906s-40.659 90.353-90.353 90.353-90.353-40.659-90.353-90.353z" fill="#FF9932"/><path d="M844.8 686.682l-131.012-52.706c-10.54-4.517-10.54-12.047-6.023-22.588 12.047-31.623 18.07-66.259 18.07-100.894 0-147.576-124.988-274.07-274.07-274.07s-274.07 126.494-274.07 274.07c0 34.635 9.034 70.777 21.081 102.4 3.012 6.024 3.012 13.553 0 19.577-3.011 4.517-6.023 0-10.54 1.505L55.717 677.647c-1.506 1.506-4.518 1.506-6.024 1.506-9.035 0-15.059-4.518-18.07-13.553C12.047 614.4 1.506 563.2 1.506 510.494 1.506 263.53 204.8 60.235 453.27 60.235s450.258 201.789 450.258 448.753c0 58.73-10.54 114.447-31.623 167.153-1.506 4.518-6.024 9.035-12.047 10.541-3.012 1.506-4.518 1.506-7.53 1.506s-4.517 0-7.529-1.506z" fill="#0FB264"/><path d="M51.2 718.306c-7.53-15.059-13.553-31.624-19.576-46.682-3.012-7.53-3.012-13.553-3.012-16.565 0-49.694 40.659-88.847 91.859-88.847 37.647 0 69.27 22.588 84.329 55.717 1.506 3.012 6.024 12.047 9.035 16.565 46.683 88.847 138.541 146.07 239.436 146.07 99.388 0 189.74-55.717 237.929-141.552 4.518-9.036 16.565-30.118 18.07-31.624 15.06-30.117 43.671-45.176 76.8-45.176 51.2 0 91.86 40.659 91.86 88.847 0 6.023 0 13.553-4.518 22.588l-9.036 22.588v1.506c-1.505 4.518-3.011 7.53-6.023 12.047-76.8 153.6-231.906 248.47-403.577 248.47S129.506 868.895 51.2 718.307z" fill="#FF9932"/></svg>