<svg class="icon" viewBox="0 0 1024 1024" xmlns="http://www.w3.org/2000/svg" width="22" height="22"><path d="M850.461 764.489c-18.828 50.225-35.879 86.841-82.464 86.841H120.162c-46.579 0-84.962-40.267-84.962-86.841L175.759 258.46c13.568-57.091 35.889-86.83 82.462-86.83h647.837c46.582 0 84.962 40.246 84.962 86.83L850.461 764.489zM322.512 337.242c-4.324 4.417-7.199 8.764-7.353 9.024-.103.207-2.479 4.999-3.184 6.909-.705 1.888-2.947 9.377-3.051 9.71l-2.427 8.982s-1.93 9.294-2.22 10.788c-.228 1.182-1.349 9.22-1.878 13.091-.135.985-.228 1.638-.238 1.7-.062.395-1.182 11.814-.893 17.924.271 6.099.842 16.711.85 16.762.012.135 1.63 13.733 3.879 22.923 2.159 8.775 4.243 15.685 6.389 21.12 2.054 5.165 7.033 14.688 7.739 15.788.126.196.415.705.829 1.452 2.054 3.67 6.868 12.26 11.296 17.218 6.098 6.826 12.447 13.796 17.25 17.406 4.337 3.258 13.223 9.334 19.065 11.43 5.268 1.909 8.96 2.885 10.165 3.008h.135l.652-.02.147-.58c.165-.622-.292-.871-1.038-1.266-1.317-.705-4.378-2.343-6.369-5.02-2.864-3.838-7.136-11.108-9.781-18.941-2.623-7.769-4.16-14.998-4.73-17.726-.341-1.629-1.131-6.691-1.899-11.585a982.706 982.706 0 0 0-1.389-8.775c-.343-2.074-1.515-12.769-2.107-24.5-.748-14.802.135-30.142.135-30.288.135-1.93 2.53-27.758 5.259-39.167l.249-1.017c2.636-11.015 4.388-18.298 8.974-25.309 6.037-9.211 8.764-11.285 9.315-11.306a.87.87 0 0 0 .87-.694c.386-1.794-9.438-9.679-14.147-11.814-5.445-2.448-12.074-4.969-19.997-4.969-6.372.175-16.019 3.182-20.501 7.746zm400.811 50.368c-10.123-57.497-51.25-77.898-83.396-77.898-22.301 0-43.337 8.816-59.229 24.832-17.728 17.872-27.413 43.046-27.996 72.806v.372l.467.467h.313c.59 0 .693-.166 3.35-4.283 8.306-12.914 33.596-52.185 61.011-58.201a41.49 41.49 0 0 1 8.869-.976c14.367 0 27.124 7.531 34.987 20.642 14.199 23.691 10.123 60.722-11.171 101.612-8.848 16.99-36.646 66.55-58.668 91.362-5.174 5.829-10.518 12.011-16.182 18.566-20.434 23.67-41.563 48.149-55.514 56.511a27.756 27.756 0 0 0-5.695 4.523c.166-8.175.373-16.347.57-24.48.489-20.019 1.005-40.702 1.005-60.43 0-31.533-1.212-57.61-3.609-77.484-1.411-11.743-3.538-21.866-5.249-29.996-.643-3.03-1.225-5.778-1.68-8.215-3.89-20.746-18.172-50.348-26.556-62.899-7.946-11.867-21.658-25.756-35.807-36.242-13.94-10.332-37.859-20.227-55.68-23.007-5.071-.797-10.041-1.203-14.77-1.203-11.223 0-19.729 2.22-25.89 4.171-6.015 1.887-11.731 5.248-15.475 7.738v.01c-2.966 1.525-4.419 3.164-4.481 3.247l1.037 1.089c.019-.011 1.66-1.317 4.23-3.029 5.613-2.852 12.935-3.205 21.13-.944 4.471 1.223 9.657 3.973 14.928 6.857 18.659 14.013 26.118 24.738 31.573 36.522 3.983 8.609 7.281 17.436 11.369 30.453 4.109 13.089 7.833 35.869 9.698 59.415.925 11.618 1.671 24.065 2.458 37.237 1.971 33.047 4.003 67.215 9.149 94.101 2.78 14.541 6.119 27.86 10.186 40.743 12.457 39.354 30.578 68.77 43.378 83.148 11.751 13.234 27.239 26.698 30.683 26.698.081 0 .155 0 .226-.019l.013.019.051-.019c.332-.083.538-.25.663-.395.019-.02.042-.062.061-.082h.011c.322-.207 32.769-21.162 57.299-41.761 88.113-73.939 168.15-198.951 148.327-311.578z" fill="#FFB90F"/></svg>