<?xml version="1.0" standalone="no"?><!DOCTYPE svg PUBLIC "-//W3C//DTD SVG 1.1//EN" "http://www.w3.org/Graphics/SVG/1.1/DTD/svg11.dtd"><svg t="1729706462206" class="icon" viewBox="0 0 1024 1024" version="1.1" xmlns="http://www.w3.org/2000/svg" p-id="12434" xmlns:xlink="http://www.w3.org/1999/xlink" width="200" height="200"><path d="M190.571 254.857H833.43c19.285 0 32.142 12.857 32.142 32.143v482.143H158.43V287c0-19.286 12.857-32.143 32.142-32.143z" fill="#91D5FF" p-id="12435"></path><path d="M225.929 126.286h540c19.285 0 35.357 16.071 35.357 32.143s-16.072 32.142-35.357 32.142h-540c-19.286 0-35.358-16.071-35.358-32.142s16.072-32.143 35.358-32.143z" fill="#BAE7FF" p-id="12436"></path><path d="M110.214 479.857h202.5l61.072 141.429H647l73.929-141.429h192.857c25.714 0 48.214 22.5 48.214 48.214v385.715C962 939.5 939.5 962 913.786 962H110.214C84.5 962 62 939.5 62 913.786V528.07c3.214-25.714 22.5-48.214 48.214-48.214z" fill="#40A9FF" p-id="12437"></path><path d="M287 769.143h450c19.286 0 32.143 12.857 32.143 32.143S756.286 833.429 737 833.429H287c-19.286 0-32.143-12.858-32.143-32.143s12.857-32.143 32.143-32.143z" fill="#BAE7FF" p-id="12438"></path></svg>