<svg class="icon" viewBox="0 0 1024 1024" xmlns="http://www.w3.org/2000/svg" width="22" height="22"><path d="M283.5 368.8c-10.3 31.7-8.3 62.3 11.8 89.6 23.8 32.2 56.9 43.5 96.1 39.2 11-1.2 21.5-3.8 31.8-7.7 40.7-15.6 67.8-57.8 61-98-6.5-38.3-28.8-66-64.8-79.8-68.4-26.2-132.3-15.2-189.7 29.9-35.3 27.7-60.7 63-67.7 108.2-11.2 73.1 3.4 139.5 58.8 192.3 41.1 39.2 90.4 57.4 147.8 55.9 72.3-1.9 132.9-30 185.6-77.9 31.9-29.1 57.4-63.8 84.8-96.9 36.6-44.3 78.4-81.5 134.1-100.3 56.2-18.9 111.6-16.3 166.4 5.8 4.3 1.7 8.6 3.5 15 6.1-10.6 1.4-19.2 2.2-27.6 3.8-42.8 7.8-76.1 31.5-104.5 63-30.3 33.5-54.6 71.6-80.8 108.2-36.5 51.1-76.6 98.8-127.5 136.5-63.5 47-134.1 73.3-213.6 69.6-57.9-2.6-112.3-19.9-162.6-49-83.6-48.4-141-117.7-162.3-213.2-20.2-90.3 2.2-171.8 60.2-242.7 52.8-64.6 124-95.4 206-104.3 115-12.5 221.6 52.1 269.5 149 35.3 71.5 23.5 152.5-31.1 210.2-35.2 37.2-79.7 57.5-130.5 61.7-59.4 4.8-112.9-11.7-156.9-52.9-54.9-51.6-71.9-140.4-15-206.3 1.1-1.3 2.5-2.5 3.8-3.7 3.2-.2 3.1 1.4 1.9 3.7z" fill="#F5C53E"/></svg>